<mxfile host="app.diagrams.net" modified="2024-01-07T17:46:05.872Z" agent="Mozilla/5.0 (Windows NT 10.0; Win64; x64) AppleWebKit/537.36 (KHTML, like Gecko) Chrome/120.0.0.0 Safari/537.36" version="22.1.17" etag="X8roZdtUzYcFZnrtePyE" type="github">
  <diagram name="Seite-1" id="kIjrKY58kMZqZ1kX8Vx8">
    <mxGraphModel>
      <root>
        <mxCell id="0" />
        <mxCell id="1" parent="0" />
      </root>
    </mxGraphModel>
  </diagram>
</mxfile>
